<?xml version="1.0" encoding="UTF-8" standalone="no"?>
<!DOCTYPE svg PUBLIC "-//W3C//DTD SVG 1.1//EN"
 "http://www.w3.org/Graphics/SVG/1.1/DTD/svg11.dtd">
<!-- Generated by graphviz version 13.0.0 (20250608.1624)
 -->
<!-- Title: PSP_Status_Flow Pages: 1 -->
<svg width="396pt" height="144pt"
 viewBox="0.00 0.00 396.00 144.00" xmlns="http://www.w3.org/2000/svg" xmlns:xlink="http://www.w3.org/1999/xlink">
<g id="graph0" class="graph" transform="scale(0.733571 0.733571) rotate(0) translate(14.4 181.9)">
<title>PSP_Status_Flow</title>
<!-- draft -->
<g id="node1" class="node">
<title>draft</title>
<path fill="#fed7aa" stroke="black" d="M60,-101C60,-101 12,-101 12,-101 6,-101 0,-95 0,-89 0,-89 0,-77 0,-77 0,-71 6,-65 12,-65 12,-65 60,-65 60,-65 66,-65 72,-71 72,-77 72,-77 72,-89 72,-89 72,-95 66,-101 60,-101"/>
<text xml:space="preserve" text-anchor="middle" x="36" y="-79.12" font-family="Inter, Segoe UI, Helvetica, Arial" font-size="10.00" fill="#7c2d12">Draft</text>
</g>
<!-- discussion -->
<g id="node2" class="node">
<title>discussion</title>
<path fill="#c6f6d5" stroke="black" d="M177,-101C177,-101 129,-101 129,-101 123,-101 117,-95 117,-89 117,-89 117,-77 117,-77 117,-71 123,-65 129,-65 129,-65 177,-65 177,-65 183,-65 189,-71 189,-77 189,-77 189,-89 189,-89 189,-95 183,-101 177,-101"/>
<text xml:space="preserve" text-anchor="middle" x="153" y="-79.12" font-family="Inter, Segoe UI, Helvetica, Arial" font-size="10.00" fill="#22543d">Discussion</text>
</g>
<!-- draft&#45;&gt;discussion -->
<g id="edge1" class="edge">
<title>draft&#45;&gt;discussion</title>
<path fill="none" stroke="#4a5568" d="M72.44,-83C82.92,-83 94.56,-83 105.62,-83"/>
<polygon fill="#4a5568" stroke="#4a5568" points="105.36,-86.5 115.36,-83 105.36,-79.5 105.36,-86.5"/>
</g>
<!-- accepted -->
<g id="node3" class="node">
<title>accepted</title>
<path fill="#9ae6b4" stroke="black" d="M320,-166C320,-166 272,-166 272,-166 266,-166 260,-160 260,-154 260,-154 260,-142 260,-142 260,-136 266,-130 272,-130 272,-130 320,-130 320,-130 326,-130 332,-136 332,-142 332,-142 332,-154 332,-154 332,-160 326,-166 320,-166"/>
<text xml:space="preserve" text-anchor="middle" x="296" y="-144.12" font-family="Inter, Segoe UI, Helvetica, Arial" font-size="10.00" fill="#22543d">Accepted</text>
</g>
<!-- discussion&#45;&gt;accepted -->
<g id="edge2" class="edge">
<title>discussion&#45;&gt;accepted</title>
<path fill="none" stroke="#4a5568" d="M189.22,-99.23C207.47,-107.65 229.98,-118.02 249.53,-127.04"/>
<polygon fill="#4a5568" stroke="#4a5568" points="247.82,-130.11 258.37,-131.11 250.75,-123.75 247.82,-130.11"/>
</g>
<!-- rejected -->
<g id="node4" class="node">
<title>rejected</title>
<path fill="#feb2b2" stroke="black" d="M320,-101C320,-101 272,-101 272,-101 266,-101 260,-95 260,-89 260,-89 260,-77 260,-77 260,-71 266,-65 272,-65 272,-65 320,-65 320,-65 326,-65 332,-71 332,-77 332,-77 332,-89 332,-89 332,-95 326,-101 320,-101"/>
<text xml:space="preserve" text-anchor="middle" x="296" y="-79.12" font-family="Inter, Segoe UI, Helvetica, Arial" font-size="10.00" fill="#7f1d1d">Rejected</text>
</g>
<!-- discussion&#45;&gt;rejected -->
<g id="edge3" class="edge">
<title>discussion&#45;&gt;rejected</title>
<path fill="none" stroke="#4a5568" d="M189.22,-83C207.13,-83 229.15,-83 248.44,-83"/>
<polygon fill="#4a5568" stroke="#4a5568" points="248.23,-86.5 258.23,-83 248.23,-79.5 248.23,-86.5"/>
</g>
<!-- withdrawn -->
<g id="node5" class="node">
<title>withdrawn</title>
<path fill="#faf089" stroke="black" d="M320,-36C320,-36 272,-36 272,-36 266,-36 260,-30 260,-24 260,-24 260,-12 260,-12 260,-6 266,0 272,0 272,0 320,0 320,0 326,0 332,-6 332,-12 332,-12 332,-24 332,-24 332,-30 326,-36 320,-36"/>
<text xml:space="preserve" text-anchor="middle" x="296" y="-14.12" font-family="Inter, Segoe UI, Helvetica, Arial" font-size="10.00" fill="#744210">Withdrawn</text>
</g>
<!-- discussion&#45;&gt;withdrawn -->
<g id="edge4" class="edge">
<title>discussion&#45;&gt;withdrawn</title>
<path fill="none" stroke="#4a5568" stroke-dasharray="5,2" d="M189.26,-66.57C196.45,-63.23 203.97,-59.75 211,-56.5 223.52,-50.72 237.1,-44.48 249.61,-38.75"/>
<polygon fill="#4a5568" stroke="#4a5568" points="250.82,-42.04 258.46,-34.7 247.91,-35.68 250.82,-42.04"/>
<text xml:space="preserve" text-anchor="middle" x="224.5" y="-67.45" font-family="Inter, Segoe UI, Helvetica, Arial" font-size="9.00" fill="#4a5568">author</text>
<text xml:space="preserve" text-anchor="middle" x="224.5" y="-57.7" font-family="Inter, Segoe UI, Helvetica, Arial" font-size="9.00" fill="#4a5568">choice</text>
</g>
<!-- final -->
<g id="node6" class="node">
<title>final</title>
<path fill="#68d391" stroke="black" d="M499,-166C499,-166 451,-166 451,-166 445,-166 439,-160 439,-154 439,-154 439,-142 439,-142 439,-136 445,-130 451,-130 451,-130 499,-130 499,-130 505,-130 511,-136 511,-142 511,-142 511,-154 511,-154 511,-160 505,-166 499,-166"/>
<text xml:space="preserve" text-anchor="middle" x="475" y="-144.12" font-family="Inter, Segoe UI, Helvetica, Arial" font-size="10.00" fill="#22543d">Final</text>
</g>
<!-- accepted&#45;&gt;final -->
<g id="edge5" class="edge">
<title>accepted&#45;&gt;final</title>
<path fill="none" stroke="#4a5568" d="M332.39,-148C359.65,-148 397.56,-148 427.3,-148"/>
<polygon fill="#4a5568" stroke="#4a5568" points="427.15,-151.5 437.15,-148 427.15,-144.5 427.15,-151.5"/>
<text xml:space="preserve" text-anchor="middle" x="385.5" y="-158.95" font-family="Inter, Segoe UI, Helvetica, Arial" font-size="9.00" fill="#4a5568">after</text>
<text xml:space="preserve" text-anchor="middle" x="385.5" y="-149.2" font-family="Inter, Segoe UI, Helvetica, Arial" font-size="9.00" fill="#4a5568">implementation</text>
</g>
</g>
</svg>
