<?xml version="1.0" encoding="UTF-8" standalone="no"?>
<!DOCTYPE svg PUBLIC "-//W3C//DTD SVG 1.1//EN"
 "http://www.w3.org/Graphics/SVG/1.1/DTD/svg11.dtd">
<!-- Generated by graphviz version 13.0.0 (20250608.1624)
 -->
<!-- Title: PSP_Workflow Pages: 1 -->
<svg width="720pt" height="223pt"
 viewBox="0.00 0.00 720.00 223.00" xmlns="http://www.w3.org/2000/svg" xmlns:xlink="http://www.w3.org/1999/xlink">
<g id="graph0" class="graph" transform="scale(0.756382 0.756382) rotate(0) translate(21.6 273.8)">
<title>PSP_Workflow</title>
<!-- start -->
<g id="node1" class="node">
<title>start</title>
<ellipse fill="#2b6cb0" stroke="black" cx="43.2" cy="-158.6" rx="28.8" ry="21.6"/>
<text xml:space="preserve" text-anchor="middle" x="43.2" y="-154.72" font-family="Inter, Segoe UI, Helvetica, Arial" font-size="10.00" fill="#ffffff">Start</text>
</g>
<!-- idea -->
<g id="node2" class="node">
<title>idea</title>
<path fill="#bee3f8" stroke="black" d="M74.4,-65.2C74.4,-65.2 12,-65.2 12,-65.2 6,-65.2 0,-59.2 0,-53.2 0,-53.2 0,-34 0,-34 0,-28 6,-22 12,-22 12,-22 74.4,-22 74.4,-22 80.4,-22 86.4,-28 86.4,-34 86.4,-34 86.4,-53.2 86.4,-53.2 86.4,-59.2 80.4,-65.2 74.4,-65.2"/>
<text xml:space="preserve" text-anchor="middle" x="43.2" y="-45.35" font-family="Inter, Segoe UI, Helvetica, Arial" font-size="10.00" fill="#1a365d">Idea</text>
<text xml:space="preserve" text-anchor="middle" x="43.2" y="-34.1" font-family="Inter, Segoe UI, Helvetica, Arial" font-size="10.00" fill="#1a365d">(Optional)</text>
</g>
<!-- start&#45;&gt;idea -->
<g id="edge1" class="edge">
<title>start&#45;&gt;idea</title>
<path fill="none" stroke="#4a5568" d="M43.2,-136.78C43.2,-119.86 43.2,-96.11 43.2,-76.83"/>
<polygon fill="#4a5568" stroke="#4a5568" points="46.7,-77.01 43.2,-67.01 39.7,-77.01 46.7,-77.01"/>
<text xml:space="preserve" text-anchor="middle" x="35.33" y="-97.42" font-family="Inter, Segoe UI, Helvetica, Arial" font-size="9.00" fill="#4a5568">optional</text>
</g>
<!-- draft -->
<g id="node3" class="node">
<title>draft</title>
<path fill="#fed7aa" stroke="black" d="M241.3,-122.2C241.3,-122.2 178.9,-122.2 178.9,-122.2 172.9,-122.2 166.9,-116.2 166.9,-110.2 166.9,-110.2 166.9,-91 166.9,-91 166.9,-85 172.9,-79 178.9,-79 178.9,-79 241.3,-79 241.3,-79 247.3,-79 253.3,-85 253.3,-91 253.3,-91 253.3,-110.2 253.3,-110.2 253.3,-116.2 247.3,-122.2 241.3,-122.2"/>
<text xml:space="preserve" text-anchor="middle" x="210.1" y="-96.72" font-family="Inter, Segoe UI, Helvetica, Arial" font-size="10.00" fill="#7c2d12">Draft PSP</text>
</g>
<!-- start&#45;&gt;draft -->
<g id="edge2" class="edge">
<title>start&#45;&gt;draft</title>
<path fill="none" stroke="#4a5568" d="M69.6,-149.66C92.52,-141.61 126.95,-129.49 155.88,-119.32"/>
<polygon fill="#4a5568" stroke="#4a5568" points="156.96,-122.65 165.23,-116.03 154.64,-116.05 156.96,-122.65"/>
<text xml:space="preserve" text-anchor="middle" x="126.65" y="-134.27" font-family="Inter, Segoe UI, Helvetica, Arial" font-size="9.00" fill="#4a5568">direct</text>
</g>
<!-- idea&#45;&gt;draft -->
<g id="edge3" class="edge">
<title>idea&#45;&gt;draft</title>
<path fill="none" stroke="#4a5568" d="M86.67,-58.28C107.74,-65.56 133.42,-74.44 155.8,-82.18"/>
<polygon fill="#4a5568" stroke="#4a5568" points="154.47,-85.42 165.06,-85.38 156.75,-78.8 154.47,-85.42"/>
</g>
<!-- discussion -->
<g id="node4" class="node">
<title>discussion</title>
<path fill="#c6f6d5" stroke="black" d="M386.7,-122.2C386.7,-122.2 324.3,-122.2 324.3,-122.2 318.3,-122.2 312.3,-116.2 312.3,-110.2 312.3,-110.2 312.3,-91 312.3,-91 312.3,-85 318.3,-79 324.3,-79 324.3,-79 386.7,-79 386.7,-79 392.7,-79 398.7,-85 398.7,-91 398.7,-91 398.7,-110.2 398.7,-110.2 398.7,-116.2 392.7,-122.2 386.7,-122.2"/>
<text xml:space="preserve" text-anchor="middle" x="355.5" y="-96.72" font-family="Inter, Segoe UI, Helvetica, Arial" font-size="10.00" fill="#22543d">Discussion</text>
</g>
<!-- draft&#45;&gt;discussion -->
<g id="edge4" class="edge">
<title>draft&#45;&gt;discussion</title>
<path fill="none" stroke="#4a5568" d="M253.74,-100.6C268.62,-100.6 285.51,-100.6 301.15,-100.6"/>
<polygon fill="#4a5568" stroke="#4a5568" points="300.76,-104.1 310.76,-100.6 300.76,-97.1 300.76,-104.1"/>
</g>
<!-- decision -->
<g id="node5" class="node">
<title>decision</title>
<path fill="#fecaca" stroke="black" d="M489.83,-116.8C489.83,-116.8 468.42,-106 468.42,-106 463.06,-103.3 463.06,-97.9 468.42,-95.2 468.42,-95.2 489.83,-84.4 489.83,-84.4 495.19,-81.7 505.91,-81.7 511.27,-84.4 511.27,-84.4 532.68,-95.2 532.68,-95.2 538.04,-97.9 538.04,-103.3 532.68,-106 532.68,-106 511.27,-116.8 511.27,-116.8 505.91,-119.5 495.19,-119.5 489.83,-116.8"/>
<text xml:space="preserve" text-anchor="middle" x="500.55" y="-96.72" font-family="Inter, Segoe UI, Helvetica, Arial" font-size="10.00" fill="#7f1d1d">Decision</text>
</g>
<!-- discussion&#45;&gt;decision -->
<g id="edge5" class="edge">
<title>discussion&#45;&gt;decision</title>
<path fill="none" stroke="#4a5568" d="M399.03,-100.6C413.6,-100.6 430.1,-100.6 445.46,-100.6"/>
<polygon fill="#4a5568" stroke="#4a5568" points="445.42,-104.1 455.42,-100.6 445.42,-97.1 445.42,-104.1"/>
</g>
<!-- accepted -->
<g id="node6" class="node">
<title>accepted</title>
<path fill="#9ae6b4" stroke="black" d="M712.55,-201.2C712.55,-201.2 650.15,-201.2 650.15,-201.2 644.15,-201.2 638.15,-195.2 638.15,-189.2 638.15,-189.2 638.15,-170 638.15,-170 638.15,-164 644.15,-158 650.15,-158 650.15,-158 712.55,-158 712.55,-158 718.55,-158 724.55,-164 724.55,-170 724.55,-170 724.55,-189.2 724.55,-189.2 724.55,-195.2 718.55,-201.2 712.55,-201.2"/>
<text xml:space="preserve" text-anchor="middle" x="681.35" y="-175.72" font-family="Inter, Segoe UI, Helvetica, Arial" font-size="10.00" fill="#22543d">Accepted</text>
</g>
<!-- decision&#45;&gt;accepted -->
<g id="edge6" class="edge">
<title>decision&#45;&gt;accepted</title>
<path fill="none" stroke="#4a5568" d="M524.19,-110.61C550,-122.01 593.04,-141.02 627.41,-156.21"/>
<polygon fill="#4a5568" stroke="#4a5568" points="625.82,-159.33 636.38,-160.17 628.65,-152.93 625.82,-159.33"/>
<text xml:space="preserve" text-anchor="middle" x="590.77" y="-148.38" font-family="Inter, Segoe UI, Helvetica, Arial" font-size="9.00" fill="#4a5568">accept</text>
</g>
<!-- rejected -->
<g id="node7" class="node">
<title>rejected</title>
<path fill="#feb2b2" stroke="black" d="M712.55,-122.2C712.55,-122.2 650.15,-122.2 650.15,-122.2 644.15,-122.2 638.15,-116.2 638.15,-110.2 638.15,-110.2 638.15,-91 638.15,-91 638.15,-85 644.15,-79 650.15,-79 650.15,-79 712.55,-79 712.55,-79 718.55,-79 724.55,-85 724.55,-91 724.55,-91 724.55,-110.2 724.55,-110.2 724.55,-116.2 718.55,-122.2 712.55,-122.2"/>
<text xml:space="preserve" text-anchor="middle" x="681.35" y="-96.72" font-family="Inter, Segoe UI, Helvetica, Arial" font-size="10.00" fill="#7f1d1d">Rejected</text>
</g>
<!-- decision&#45;&gt;rejected -->
<g id="edge7" class="edge">
<title>decision&#45;&gt;rejected</title>
<path fill="none" stroke="#4a5568" d="M544.38,-100.6C569.04,-100.6 600.25,-100.6 626.56,-100.6"/>
<polygon fill="#4a5568" stroke="#4a5568" points="626.36,-104.1 636.36,-100.6 626.36,-97.1 626.36,-104.1"/>
<text xml:space="preserve" text-anchor="middle" x="590.77" y="-101.8" font-family="Inter, Segoe UI, Helvetica, Arial" font-size="9.00" fill="#4a5568">reject</text>
</g>
<!-- withdrawn -->
<g id="node8" class="node">
<title>withdrawn</title>
<path fill="#faf089" stroke="black" d="M712.55,-43.2C712.55,-43.2 650.15,-43.2 650.15,-43.2 644.15,-43.2 638.15,-37.2 638.15,-31.2 638.15,-31.2 638.15,-12 638.15,-12 638.15,-6 644.15,0 650.15,0 650.15,0 712.55,0 712.55,0 718.55,0 724.55,-6 724.55,-12 724.55,-12 724.55,-31.2 724.55,-31.2 724.55,-37.2 718.55,-43.2 712.55,-43.2"/>
<text xml:space="preserve" text-anchor="middle" x="681.35" y="-17.72" font-family="Inter, Segoe UI, Helvetica, Arial" font-size="10.00" fill="#744210">Withdrawn</text>
</g>
<!-- decision&#45;&gt;withdrawn -->
<g id="edge8" class="edge">
<title>decision&#45;&gt;withdrawn</title>
<path fill="none" stroke="#4a5568" d="M524.19,-90.59C550,-79.19 593.04,-60.18 627.41,-44.99"/>
<polygon fill="#4a5568" stroke="#4a5568" points="628.65,-48.27 636.38,-41.03 625.82,-41.87 628.65,-48.27"/>
<text xml:space="preserve" text-anchor="middle" x="590.77" y="-69.38" font-family="Inter, Segoe UI, Helvetica, Arial" font-size="9.00" fill="#4a5568">withdraw</text>
</g>
<!-- implementation -->
<g id="node9" class="node">
<title>implementation</title>
<path fill="#a3bffa" stroke="black" d="M896.7,-252.2C896.7,-252.2 834.3,-252.2 834.3,-252.2 828.3,-252.2 822.3,-246.2 822.3,-240.2 822.3,-240.2 822.3,-221 822.3,-221 822.3,-215 828.3,-209 834.3,-209 834.3,-209 896.7,-209 896.7,-209 902.7,-209 908.7,-215 908.7,-221 908.7,-221 908.7,-240.2 908.7,-240.2 908.7,-246.2 902.7,-252.2 896.7,-252.2"/>
<text xml:space="preserve" text-anchor="middle" x="865.5" y="-226.72" font-family="Inter, Segoe UI, Helvetica, Arial" font-size="10.00" fill="#2c5282">Implementation</text>
</g>
<!-- accepted&#45;&gt;implementation -->
<g id="edge9" class="edge">
<title>accepted&#45;&gt;implementation</title>
<path fill="none" stroke="#4a5568" d="M724.6,-191.43C750.28,-198.62 783.31,-207.87 810.82,-215.57"/>
<polygon fill="#4a5568" stroke="#4a5568" points="809.82,-218.92 820.39,-218.25 811.71,-212.18 809.82,-218.92"/>
<text xml:space="preserve" text-anchor="middle" x="773.42" y="-220.62" font-family="Inter, Segoe UI, Helvetica, Arial" font-size="9.00" fill="#4a5568">if code</text>
<text xml:space="preserve" text-anchor="middle" x="773.42" y="-210.87" font-family="Inter, Segoe UI, Helvetica, Arial" font-size="9.00" fill="#4a5568">required</text>
</g>
<!-- final -->
<g id="node10" class="node">
<title>final</title>
<path fill="#68d391" stroke="black" d="M896.7,-137.2C896.7,-137.2 834.3,-137.2 834.3,-137.2 828.3,-137.2 822.3,-131.2 822.3,-125.2 822.3,-125.2 822.3,-106 822.3,-106 822.3,-100 828.3,-94 834.3,-94 834.3,-94 896.7,-94 896.7,-94 902.7,-94 908.7,-100 908.7,-106 908.7,-106 908.7,-125.2 908.7,-125.2 908.7,-131.2 902.7,-137.2 896.7,-137.2"/>
<text xml:space="preserve" text-anchor="middle" x="865.5" y="-111.72" font-family="Inter, Segoe UI, Helvetica, Arial" font-size="10.00" fill="#22543d">Final</text>
</g>
<!-- accepted&#45;&gt;final -->
<g id="edge10" class="edge">
<title>accepted&#45;&gt;final</title>
<path fill="none" stroke="#4a5568" d="M724.6,-164.76C750.39,-155.69 783.6,-144.02 811.19,-134.33"/>
<polygon fill="#4a5568" stroke="#4a5568" points="812.15,-137.7 820.42,-131.09 809.83,-131.1 812.15,-137.7"/>
<text xml:space="preserve" text-anchor="middle" x="773.42" y="-164.28" font-family="Inter, Segoe UI, Helvetica, Arial" font-size="9.00" fill="#4a5568">if no code</text>
<text xml:space="preserve" text-anchor="middle" x="773.42" y="-154.53" font-family="Inter, Segoe UI, Helvetica, Arial" font-size="9.00" fill="#4a5568">required</text>
</g>
<!-- implementation&#45;&gt;final -->
<g id="edge11" class="edge">
<title>implementation&#45;&gt;final</title>
<path fill="none" stroke="#4a5568" d="M865.5,-208.81C865.5,-188.88 865.5,-168.94 865.5,-149.01"/>
<polygon fill="#4a5568" stroke="#4a5568" points="869,-149.13 865.5,-139.13 862,-149.13 869,-149.13"/>
</g>
</g>
</svg>
